<mxfile host="65bd71144e">
    <diagram id="GUSPRAJsgAIgAGzK0_ZS" name="PÃ¡gina-1">
        <mxGraphModel dx="1187" dy="2073" grid="1" gridSize="10" guides="1" tooltips="1" connect="1" arrows="1" fold="1" page="1" pageScale="1" pageWidth="827" pageHeight="1169" math="0" shadow="0">
            <root>
                <mxCell id="0"/>
                <mxCell id="1" parent="0"/>
                <mxCell id="4" value="" style="edgeStyle=none;html=1;" edge="1" parent="1" source="6" target="8">
                    <mxGeometry relative="1" as="geometry"/>
                </mxCell>
                <mxCell id="5" value="" style="edgeStyle=none;html=1;" edge="1" parent="1" source="6" target="28">
                    <mxGeometry relative="1" as="geometry"/>
                </mxCell>
                <mxCell id="6" value="se busca una solucione de &lt;br&gt;forma parcialmente aleatoria &lt;br&gt;de la poblacion con mas probabilida las&lt;br&gt;&amp;nbsp;que tiene mejor&lt;br&gt;&amp;nbsp;fitness&amp;nbsp; con respecto &lt;br&gt;al fitness que se quiere obtimizar" style="html=1;dashed=0;whitespace=wrap;" vertex="1" parent="1">
                    <mxGeometry x="131.5" y="610" width="245" height="80" as="geometry"/>
                </mxCell>
                <mxCell id="7" style="edgeStyle=none;html=1;" edge="1" parent="1" source="8" target="33">
                    <mxGeometry relative="1" as="geometry"/>
                </mxCell>
                <mxCell id="8" value="Seleccion un gen GA(Sitio A) que tenga&lt;br&gt;peor fitness de la solucion A" style="html=1;dashed=0;whitespace=wrap;" vertex="1" parent="1">
                    <mxGeometry x="154" y="720" width="205" height="70" as="geometry"/>
                </mxCell>
                <mxCell id="9" style="edgeStyle=none;html=1;entryX=0.5;entryY=0;entryDx=0;entryDy=0;" edge="1" parent="1" source="10" target="28">
                    <mxGeometry relative="1" as="geometry"/>
                </mxCell>
                <mxCell id="10" value="Inicio" style="html=1;dashed=0;whitespace=wrap;shape=mxgraph.dfd.start" vertex="1" parent="1">
                    <mxGeometry x="214" y="440" width="80" height="30" as="geometry"/>
                </mxCell>
                <mxCell id="111" style="edgeStyle=none;html=1;fontColor=#000000;" edge="1" parent="1" source="12" target="110">
                    <mxGeometry relative="1" as="geometry"/>
                </mxCell>
                <mxCell id="12" value="Se realiza el cruce de la solucion A con la B&lt;br&gt;(gen de la solucion B se pasa a la solucion A)" style="whiteSpace=wrap;html=1;dashed=0;" vertex="1" parent="1">
                    <mxGeometry x="184" y="980" width="140" height="70" as="geometry"/>
                </mxCell>
                <mxCell id="15" value="" style="edgeStyle=none;html=1;entryX=0;entryY=0.5;entryDx=0;entryDy=0;" edge="1" parent="1" source="17" target="23">
                    <mxGeometry relative="1" as="geometry">
                        <mxPoint x="394" y="1425.31" as="targetPoint"/>
                    </mxGeometry>
                </mxCell>
                <mxCell id="16" value="No" style="edgeLabel;html=1;align=center;verticalAlign=middle;resizable=0;points=[];" vertex="1" connectable="0" parent="15">
                    <mxGeometry x="-0.2908" y="1" relative="1" as="geometry">
                        <mxPoint as="offset"/>
                    </mxGeometry>
                </mxCell>
                <mxCell id="17" value="vigilanate esta en el &lt;br&gt;sitio a intercambiar ?" style="shape=rhombus;html=1;dashed=0;whitespace=wrap;perimeter=rhombusPerimeter;" vertex="1" parent="1">
                    <mxGeometry x="174" y="1360" width="160" height="131.25" as="geometry"/>
                </mxCell>
                <mxCell id="18" value="" style="edgeStyle=none;html=1;" edge="1" parent="1" source="19" target="21">
                    <mxGeometry relative="1" as="geometry"/>
                </mxCell>
                <mxCell id="19" value="agregar vigilante A al sitio k con sus jornadas laborales" style="whiteSpace=wrap;html=1;dashed=0;" vertex="1" parent="1">
                    <mxGeometry x="553" y="1395.6250000000002" width="120" height="60" as="geometry"/>
                </mxCell>
                <mxCell id="20" style="edgeStyle=none;html=1;" edge="1" parent="1" source="21" target="26">
                    <mxGeometry relative="1" as="geometry"/>
                </mxCell>
                <mxCell id="21" value="reparar la jornada laborales de los vigilantes del sitio K" style="whiteSpace=wrap;html=1;dashed=0;" vertex="1" parent="1">
                    <mxGeometry x="553" y="1601.2350000000001" width="120" height="60" as="geometry"/>
                </mxCell>
                <mxCell id="22" style="edgeStyle=none;html=1;" edge="1" parent="1" source="23">
                    <mxGeometry relative="1" as="geometry">
                        <mxPoint x="554" y="1425.24" as="targetPoint"/>
                        <Array as="points">
                            <mxPoint x="534" y="1425.24"/>
                        </Array>
                    </mxGeometry>
                </mxCell>
                <mxCell id="23" value="obtiene sitio" style="html=1;dashed=0;whitespace=wrap;" vertex="1" parent="1">
                    <mxGeometry x="414" y="1400.63" width="100" height="50" as="geometry"/>
                </mxCell>
                <mxCell id="24" value="Si" style="edgeStyle=none;html=1;entryX=0.25;entryY=1;entryDx=0;entryDy=0;" edge="1" parent="1" source="26" target="23">
                    <mxGeometry relative="1" as="geometry"/>
                </mxCell>
                <mxCell id="25" value="No" style="edgeStyle=none;html=1;" edge="1" parent="1" source="26" target="27">
                    <mxGeometry relative="1" as="geometry">
                        <mxPoint x="439" y="1731.24" as="targetPoint"/>
                    </mxGeometry>
                </mxCell>
                <mxCell id="26" value="siguiente sitio del &lt;br&gt;vigilante A!= Vacio" style="shape=rhombus;html=1;dashed=0;whitespace=wrap;perimeter=rhombusPerimeter;" vertex="1" parent="1">
                    <mxGeometry x="374" y="1586.23" width="130" height="90" as="geometry"/>
                </mxCell>
                <mxCell id="27" value="End" style="html=1;dashed=0;whitespace=wrap;shape=mxgraph.dfd.start" vertex="1" parent="1">
                    <mxGeometry x="399" y="1741.24" width="80" height="30" as="geometry"/>
                </mxCell>
                <mxCell id="28" value="se obtiene la poblacion&amp;nbsp;" style="html=1;dashed=0;whitespace=wrap;" vertex="1" parent="1">
                    <mxGeometry x="169" y="530" width="170" height="40" as="geometry"/>
                </mxCell>
                <mxCell id="30" style="edgeStyle=none;html=1;" edge="1" parent="1" source="31">
                    <mxGeometry relative="1" as="geometry">
                        <mxPoint x="374" y="760" as="targetPoint"/>
                    </mxGeometry>
                </mxCell>
                <mxCell id="31" value="esto se hace con el fin de asegurar que el gen poco factible sea reemplazo por uno mejor, asi tenienod la serteza el mejoramienot de la solucion con el nuevo gen." style="shape=cloud;whiteSpace=wrap;html=1;" vertex="1" parent="1">
                    <mxGeometry x="534" y="370" width="220" height="270" as="geometry"/>
                </mxCell>
                <mxCell id="32" style="edgeStyle=none;html=1;" edge="1" parent="1" source="33" target="12">
                    <mxGeometry relative="1" as="geometry"/>
                </mxCell>
                <mxCell id="33" value="se busca dentro de la poblacion B&amp;nbsp;&amp;nbsp;&lt;br&gt;el GA(sitio A) con mejor ifitness" style="html=1;dashed=0;whitespace=wrap;" vertex="1" parent="1">
                    <mxGeometry x="141.5" y="840" width="230" height="90" as="geometry"/>
                </mxCell>
                <mxCell id="34" style="edgeStyle=none;html=1;" edge="1" parent="1" source="35">
                    <mxGeometry relative="1" as="geometry">
                        <mxPoint x="374" y="900" as="targetPoint"/>
                    </mxGeometry>
                </mxCell>
                <mxCell id="35" value="se busca el mejor gen dentro de la poblacion para acelerar la convergencia&amp;nbsp;" style="shape=cloud;whiteSpace=wrap;html=1;" vertex="1" parent="1">
                    <mxGeometry x="574" y="730" width="149" height="140" as="geometry"/>
                </mxCell>
                <mxCell id="36" value="Solucion hija&lt;br&gt;" style="edgeStyle=none;html=1;fontColor=#000000;" edge="1" parent="1" source="37" target="75">
                    <mxGeometry x="0.0244" y="25" relative="1" as="geometry">
                        <mxPoint as="offset"/>
                    </mxGeometry>
                </mxCell>
                <mxCell id="37" value="" style="shape=table;startSize=0;container=1;collapsible=0;childLayout=tableLayout;" vertex="1" parent="1">
                    <mxGeometry x="100" y="-110" width="450" height="147" as="geometry"/>
                </mxCell>
                <mxCell id="38" style="shape=partialRectangle;collapsible=0;dropTarget=0;pointerEvents=0;fillColor=none;top=0;left=0;bottom=0;right=0;points=[[0,0.5],[1,0.5]];portConstraint=eastwest;" vertex="1" parent="37">
                    <mxGeometry width="450" height="60" as="geometry"/>
                </mxCell>
                <mxCell id="39" value="SOLUCION A" style="shape=partialRectangle;html=1;whiteSpace=wrap;connectable=0;overflow=hidden;fillColor=#e1d5e7;top=0;left=0;bottom=0;right=0;pointerEvents=1;strokeColor=#9673a6;" vertex="1" parent="38">
                    <mxGeometry width="90" height="60" as="geometry">
                        <mxRectangle width="90" height="60" as="alternateBounds"/>
                    </mxGeometry>
                </mxCell>
                <mxCell id="40" value="Vigilante" style="shape=partialRectangle;html=1;whiteSpace=wrap;connectable=0;overflow=hidden;fillColor=#e1d5e7;top=0;left=0;bottom=0;right=0;pointerEvents=1;strokeColor=#9673a6;" vertex="1" parent="38">
                    <mxGeometry x="90" width="90" height="60" as="geometry">
                        <mxRectangle width="90" height="60" as="alternateBounds"/>
                    </mxGeometry>
                </mxCell>
                <mxCell id="41" value="Horas trabajadas por semana en un sitio x" style="shape=partialRectangle;html=1;whiteSpace=wrap;connectable=0;overflow=hidden;fillColor=#e1d5e7;top=0;left=0;bottom=0;right=0;pointerEvents=1;strokeColor=#9673a6;" vertex="1" parent="38">
                    <mxGeometry x="180" width="90" height="60" as="geometry">
                        <mxRectangle width="90" height="60" as="alternateBounds"/>
                    </mxGeometry>
                </mxCell>
                <mxCell id="42" value="Turnos a cubrir" style="shape=partialRectangle;html=1;whiteSpace=wrap;connectable=0;overflow=hidden;fillColor=#e1d5e7;top=0;left=0;bottom=0;right=0;pointerEvents=1;strokeColor=#9673a6;" vertex="1" parent="38">
                    <mxGeometry x="270" width="90" height="60" as="geometry">
                        <mxRectangle width="90" height="60" as="alternateBounds"/>
                    </mxGeometry>
                </mxCell>
                <mxCell id="43" value="Turnos faltantes" style="shape=partialRectangle;html=1;whiteSpace=wrap;connectable=0;overflow=hidden;fillColor=#e1d5e7;top=0;left=0;bottom=0;right=0;pointerEvents=1;strokeColor=#9673a6;" vertex="1" parent="38">
                    <mxGeometry x="360" width="90" height="60" as="geometry">
                        <mxRectangle width="90" height="60" as="alternateBounds"/>
                    </mxGeometry>
                </mxCell>
                <mxCell id="44" value="" style="shape=partialRectangle;collapsible=0;dropTarget=0;pointerEvents=0;fillColor=none;top=0;left=0;bottom=0;right=0;points=[[0,0.5],[1,0.5]];portConstraint=eastwest;" vertex="1" parent="37">
                    <mxGeometry y="60" width="450" height="44" as="geometry"/>
                </mxCell>
                <mxCell id="45" value="A1" style="shape=partialRectangle;html=1;whiteSpace=wrap;connectable=0;overflow=hidden;fillColor=#dae8fc;top=0;left=0;bottom=0;right=0;pointerEvents=1;strokeColor=#6c8ebf;" vertex="1" parent="44">
                    <mxGeometry width="90" height="44" as="geometry">
                        <mxRectangle width="90" height="44" as="alternateBounds"/>
                    </mxGeometry>
                </mxCell>
                <mxCell id="46" value="1,8,6,9" style="shape=partialRectangle;html=1;whiteSpace=wrap;connectable=0;overflow=hidden;fillColor=none;top=0;left=0;bottom=0;right=0;pointerEvents=1;" vertex="1" parent="44">
                    <mxGeometry x="90" width="90" height="44" as="geometry">
                        <mxRectangle width="90" height="44" as="alternateBounds"/>
                    </mxGeometry>
                </mxCell>
                <mxCell id="47" value="[30,48,48,48]" style="shape=partialRectangle;html=1;whiteSpace=wrap;connectable=0;overflow=hidden;fillColor=none;top=0;left=0;bottom=0;right=0;pointerEvents=1;" vertex="1" parent="44">
                    <mxGeometry x="180" width="90" height="44" as="geometry">
                        <mxRectangle width="90" height="44" as="alternateBounds"/>
                    </mxGeometry>
                </mxCell>
                <mxCell id="48" value="174" style="shape=partialRectangle;html=1;whiteSpace=wrap;connectable=0;overflow=hidden;fillColor=none;top=0;left=0;bottom=0;right=0;pointerEvents=1;" vertex="1" parent="44">
                    <mxGeometry x="270" width="90" height="44" as="geometry">
                        <mxRectangle width="90" height="44" as="alternateBounds"/>
                    </mxGeometry>
                </mxCell>
                <mxCell id="49" value="0" style="shape=partialRectangle;html=1;whiteSpace=wrap;connectable=0;overflow=hidden;fillColor=none;top=0;left=0;bottom=0;right=0;pointerEvents=1;" vertex="1" parent="44">
                    <mxGeometry x="360" width="90" height="44" as="geometry">
                        <mxRectangle width="90" height="44" as="alternateBounds"/>
                    </mxGeometry>
                </mxCell>
                <mxCell id="50" value="" style="shape=partialRectangle;collapsible=0;dropTarget=0;pointerEvents=0;fillColor=none;top=0;left=0;bottom=0;right=0;points=[[0,0.5],[1,0.5]];portConstraint=eastwest;" vertex="1" parent="37">
                    <mxGeometry y="104" width="450" height="43" as="geometry"/>
                </mxCell>
                <mxCell id="51" value="A2" style="shape=partialRectangle;html=1;whiteSpace=wrap;connectable=0;overflow=hidden;fillColor=#dae8fc;top=0;left=0;bottom=0;right=0;pointerEvents=1;strokeColor=#6c8ebf;" vertex="1" parent="50">
                    <mxGeometry width="90" height="43" as="geometry">
                        <mxRectangle width="90" height="43" as="alternateBounds"/>
                    </mxGeometry>
                </mxCell>
                <mxCell id="52" value="10,2,13" style="shape=partialRectangle;html=1;whiteSpace=wrap;connectable=0;overflow=hidden;fillColor=none;top=0;left=0;bottom=0;right=0;pointerEvents=1;" vertex="1" parent="50">
                    <mxGeometry x="90" width="90" height="43" as="geometry">
                        <mxRectangle width="90" height="43" as="alternateBounds"/>
                    </mxGeometry>
                </mxCell>
                <mxCell id="53" value="[52,52,52]" style="shape=partialRectangle;html=1;whiteSpace=wrap;connectable=0;overflow=hidden;fillColor=none;top=0;left=0;bottom=0;right=0;pointerEvents=1;" vertex="1" parent="50">
                    <mxGeometry x="180" width="90" height="43" as="geometry">
                        <mxRectangle width="90" height="43" as="alternateBounds"/>
                    </mxGeometry>
                </mxCell>
                <mxCell id="54" value="192" style="shape=partialRectangle;html=1;whiteSpace=wrap;connectable=0;overflow=hidden;fillColor=none;top=0;left=0;bottom=0;right=0;pointerEvents=1;" vertex="1" parent="50">
                    <mxGeometry x="270" width="90" height="43" as="geometry">
                        <mxRectangle width="90" height="43" as="alternateBounds"/>
                    </mxGeometry>
                </mxCell>
                <mxCell id="55" value="36" style="shape=partialRectangle;html=1;whiteSpace=wrap;connectable=0;overflow=hidden;fillColor=none;top=0;left=0;bottom=0;right=0;pointerEvents=1;" vertex="1" parent="50">
                    <mxGeometry x="360" width="90" height="43" as="geometry">
                        <mxRectangle width="90" height="43" as="alternateBounds"/>
                    </mxGeometry>
                </mxCell>
                <mxCell id="62" value="" style="shape=table;startSize=0;container=1;collapsible=0;childLayout=tableLayout;" vertex="1" parent="1">
                    <mxGeometry x="100" y="-280" width="450" height="104" as="geometry"/>
                </mxCell>
                <mxCell id="63" style="shape=partialRectangle;collapsible=0;dropTarget=0;pointerEvents=0;fillColor=none;top=0;left=0;bottom=0;right=0;points=[[0,0.5],[1,0.5]];portConstraint=eastwest;" vertex="1" parent="62">
                    <mxGeometry width="450" height="60" as="geometry"/>
                </mxCell>
                <mxCell id="64" value="SOLUCION B" style="shape=partialRectangle;html=1;whiteSpace=wrap;connectable=0;overflow=hidden;fillColor=#e1d5e7;top=0;left=0;bottom=0;right=0;pointerEvents=1;strokeColor=#9673a6;" vertex="1" parent="63">
                    <mxGeometry width="90" height="60" as="geometry">
                        <mxRectangle width="90" height="60" as="alternateBounds"/>
                    </mxGeometry>
                </mxCell>
                <mxCell id="65" value="Vigilante" style="shape=partialRectangle;html=1;whiteSpace=wrap;connectable=0;overflow=hidden;fillColor=#e1d5e7;top=0;left=0;bottom=0;right=0;pointerEvents=1;strokeColor=#9673a6;" vertex="1" parent="63">
                    <mxGeometry x="90" width="90" height="60" as="geometry">
                        <mxRectangle width="90" height="60" as="alternateBounds"/>
                    </mxGeometry>
                </mxCell>
                <mxCell id="66" value="Horas trabajadas por semana en un sitio x" style="shape=partialRectangle;html=1;whiteSpace=wrap;connectable=0;overflow=hidden;fillColor=#e1d5e7;top=0;left=0;bottom=0;right=0;pointerEvents=1;strokeColor=#9673a6;" vertex="1" parent="63">
                    <mxGeometry x="180" width="90" height="60" as="geometry">
                        <mxRectangle width="90" height="60" as="alternateBounds"/>
                    </mxGeometry>
                </mxCell>
                <mxCell id="67" value="Turnos a cubrir" style="shape=partialRectangle;html=1;whiteSpace=wrap;connectable=0;overflow=hidden;fillColor=#e1d5e7;top=0;left=0;bottom=0;right=0;pointerEvents=1;strokeColor=#9673a6;" vertex="1" parent="63">
                    <mxGeometry x="270" width="90" height="60" as="geometry">
                        <mxRectangle width="90" height="60" as="alternateBounds"/>
                    </mxGeometry>
                </mxCell>
                <mxCell id="68" value="Turnos faltantes" style="shape=partialRectangle;html=1;whiteSpace=wrap;connectable=0;overflow=hidden;fillColor=#e1d5e7;top=0;left=0;bottom=0;right=0;pointerEvents=1;strokeColor=#9673a6;" vertex="1" parent="63">
                    <mxGeometry x="360" width="90" height="60" as="geometry">
                        <mxRectangle width="90" height="60" as="alternateBounds"/>
                    </mxGeometry>
                </mxCell>
                <mxCell id="69" value="" style="shape=partialRectangle;collapsible=0;dropTarget=0;pointerEvents=0;fillColor=none;top=0;left=0;bottom=0;right=0;points=[[0,0.5],[1,0.5]];portConstraint=eastwest;" vertex="1" parent="62">
                    <mxGeometry y="60" width="450" height="44" as="geometry"/>
                </mxCell>
                <mxCell id="70" value="B1" style="shape=partialRectangle;html=1;whiteSpace=wrap;connectable=0;overflow=hidden;fillColor=#f8cecc;top=0;left=0;bottom=0;right=0;pointerEvents=1;strokeColor=#b85450;" vertex="1" parent="69">
                    <mxGeometry width="90" height="44" as="geometry">
                        <mxRectangle width="90" height="44" as="alternateBounds"/>
                    </mxGeometry>
                </mxCell>
                <mxCell id="71" value="1,2,3,4" style="shape=partialRectangle;html=1;whiteSpace=wrap;connectable=0;overflow=hidden;fillColor=none;top=0;left=0;bottom=0;right=0;pointerEvents=1;" vertex="1" parent="69">
                    <mxGeometry x="90" width="90" height="44" as="geometry">
                        <mxRectangle width="90" height="44" as="alternateBounds"/>
                    </mxGeometry>
                </mxCell>
                <mxCell id="72" value="[48,48,48,48]" style="shape=partialRectangle;html=1;whiteSpace=wrap;connectable=0;overflow=hidden;fillColor=none;top=0;left=0;bottom=0;right=0;pointerEvents=1;" vertex="1" parent="69">
                    <mxGeometry x="180" width="90" height="44" as="geometry">
                        <mxRectangle width="90" height="44" as="alternateBounds"/>
                    </mxGeometry>
                </mxCell>
                <mxCell id="73" value="192" style="shape=partialRectangle;html=1;whiteSpace=wrap;connectable=0;overflow=hidden;fillColor=none;top=0;left=0;bottom=0;right=0;pointerEvents=1;" vertex="1" parent="69">
                    <mxGeometry x="270" width="90" height="44" as="geometry">
                        <mxRectangle width="90" height="44" as="alternateBounds"/>
                    </mxGeometry>
                </mxCell>
                <mxCell id="74" value="0" style="shape=partialRectangle;html=1;whiteSpace=wrap;connectable=0;overflow=hidden;fillColor=none;top=0;left=0;bottom=0;right=0;pointerEvents=1;" vertex="1" parent="69">
                    <mxGeometry x="360" width="90" height="44" as="geometry">
                        <mxRectangle width="90" height="44" as="alternateBounds"/>
                    </mxGeometry>
                </mxCell>
                <mxCell id="75" value="" style="shape=table;startSize=0;container=1;collapsible=0;childLayout=tableLayout;" vertex="1" parent="1">
                    <mxGeometry x="100" y="160" width="450" height="147" as="geometry"/>
                </mxCell>
                <mxCell id="76" style="shape=partialRectangle;collapsible=0;dropTarget=0;pointerEvents=0;fillColor=none;top=0;left=0;bottom=0;right=0;points=[[0,0.5],[1,0.5]];portConstraint=eastwest;" vertex="1" parent="75">
                    <mxGeometry width="450" height="60" as="geometry"/>
                </mxCell>
                <mxCell id="77" value="SOLUCION C" style="shape=partialRectangle;html=1;whiteSpace=wrap;connectable=0;overflow=hidden;fillColor=#e1d5e7;top=0;left=0;bottom=0;right=0;pointerEvents=1;strokeColor=#9673a6;" vertex="1" parent="76">
                    <mxGeometry width="90" height="60" as="geometry">
                        <mxRectangle width="90" height="60" as="alternateBounds"/>
                    </mxGeometry>
                </mxCell>
                <mxCell id="78" value="Vigilante" style="shape=partialRectangle;html=1;whiteSpace=wrap;connectable=0;overflow=hidden;fillColor=#e1d5e7;top=0;left=0;bottom=0;right=0;pointerEvents=1;strokeColor=#9673a6;" vertex="1" parent="76">
                    <mxGeometry x="90" width="90" height="60" as="geometry">
                        <mxRectangle width="90" height="60" as="alternateBounds"/>
                    </mxGeometry>
                </mxCell>
                <mxCell id="79" value="Horas trabajadas por semana en un sitio x" style="shape=partialRectangle;html=1;whiteSpace=wrap;connectable=0;overflow=hidden;fillColor=#e1d5e7;top=0;left=0;bottom=0;right=0;pointerEvents=1;strokeColor=#9673a6;" vertex="1" parent="76">
                    <mxGeometry x="180" width="90" height="60" as="geometry">
                        <mxRectangle width="90" height="60" as="alternateBounds"/>
                    </mxGeometry>
                </mxCell>
                <mxCell id="80" value="Turnos a cubrir" style="shape=partialRectangle;html=1;whiteSpace=wrap;connectable=0;overflow=hidden;fillColor=#e1d5e7;top=0;left=0;bottom=0;right=0;pointerEvents=1;strokeColor=#9673a6;" vertex="1" parent="76">
                    <mxGeometry x="270" width="90" height="60" as="geometry">
                        <mxRectangle width="90" height="60" as="alternateBounds"/>
                    </mxGeometry>
                </mxCell>
                <mxCell id="81" value="Turnos faltantes" style="shape=partialRectangle;html=1;whiteSpace=wrap;connectable=0;overflow=hidden;fillColor=#e1d5e7;top=0;left=0;bottom=0;right=0;pointerEvents=1;strokeColor=#9673a6;" vertex="1" parent="76">
                    <mxGeometry x="360" width="90" height="60" as="geometry">
                        <mxRectangle width="90" height="60" as="alternateBounds"/>
                    </mxGeometry>
                </mxCell>
                <mxCell id="82" value="" style="shape=partialRectangle;collapsible=0;dropTarget=0;pointerEvents=0;fillColor=none;top=0;left=0;bottom=0;right=0;points=[[0,0.5],[1,0.5]];portConstraint=eastwest;" vertex="1" parent="75">
                    <mxGeometry y="60" width="450" height="44" as="geometry"/>
                </mxCell>
                <mxCell id="83" value="A1" style="shape=partialRectangle;html=1;whiteSpace=wrap;connectable=0;overflow=hidden;fillColor=#dae8fc;top=0;left=0;bottom=0;right=0;pointerEvents=1;strokeColor=#6c8ebf;" vertex="1" parent="82">
                    <mxGeometry width="90" height="44" as="geometry">
                        <mxRectangle width="90" height="44" as="alternateBounds"/>
                    </mxGeometry>
                </mxCell>
                <mxCell id="84" value="1,8,6,9" style="shape=partialRectangle;html=1;whiteSpace=wrap;connectable=0;overflow=hidden;fillColor=none;top=0;left=0;bottom=0;right=0;pointerEvents=1;" vertex="1" parent="82">
                    <mxGeometry x="90" width="90" height="44" as="geometry">
                        <mxRectangle width="90" height="44" as="alternateBounds"/>
                    </mxGeometry>
                </mxCell>
                <mxCell id="85" value="[4,48,48,48]" style="shape=partialRectangle;html=1;whiteSpace=wrap;connectable=0;overflow=hidden;fillColor=none;top=0;left=0;bottom=0;right=0;pointerEvents=1;" vertex="1" parent="82">
                    <mxGeometry x="180" width="90" height="44" as="geometry">
                        <mxRectangle width="90" height="44" as="alternateBounds"/>
                    </mxGeometry>
                </mxCell>
                <mxCell id="86" value="174" style="shape=partialRectangle;html=1;whiteSpace=wrap;connectable=0;overflow=hidden;fillColor=none;top=0;left=0;bottom=0;right=0;pointerEvents=1;" vertex="1" parent="82">
                    <mxGeometry x="270" width="90" height="44" as="geometry">
                        <mxRectangle width="90" height="44" as="alternateBounds"/>
                    </mxGeometry>
                </mxCell>
                <mxCell id="87" value="26" style="shape=partialRectangle;html=1;whiteSpace=wrap;connectable=0;overflow=hidden;fillColor=none;top=0;left=0;bottom=0;right=0;pointerEvents=1;" vertex="1" parent="82">
                    <mxGeometry x="360" width="90" height="44" as="geometry">
                        <mxRectangle width="90" height="44" as="alternateBounds"/>
                    </mxGeometry>
                </mxCell>
                <mxCell id="94" style="shape=partialRectangle;collapsible=0;dropTarget=0;pointerEvents=0;fillColor=none;top=0;left=0;bottom=0;right=0;points=[[0,0.5],[1,0.5]];portConstraint=eastwest;" vertex="1" parent="75">
                    <mxGeometry y="104" width="450" height="43" as="geometry"/>
                </mxCell>
                <mxCell id="95" value="A2" style="shape=partialRectangle;html=1;whiteSpace=wrap;connectable=0;overflow=hidden;fillColor=#f8cecc;top=0;left=0;bottom=0;right=0;pointerEvents=1;strokeColor=#b85450;" vertex="1" parent="94">
                    <mxGeometry width="90" height="43" as="geometry">
                        <mxRectangle width="90" height="43" as="alternateBounds"/>
                    </mxGeometry>
                </mxCell>
                <mxCell id="96" value="1,2,3,4" style="shape=partialRectangle;html=1;whiteSpace=wrap;connectable=0;overflow=hidden;fillColor=none;top=0;left=0;bottom=0;right=0;pointerEvents=1;strokeColor=#82b366;" vertex="1" parent="94">
                    <mxGeometry x="90" width="90" height="43" as="geometry">
                        <mxRectangle width="90" height="43" as="alternateBounds"/>
                    </mxGeometry>
                </mxCell>
                <mxCell id="97" value="[48,48,48,48]" style="shape=partialRectangle;html=1;whiteSpace=wrap;connectable=0;overflow=hidden;fillColor=none;top=0;left=0;bottom=0;right=0;pointerEvents=1;strokeColor=#82b366;" vertex="1" parent="94">
                    <mxGeometry x="180" width="90" height="43" as="geometry">
                        <mxRectangle width="90" height="43" as="alternateBounds"/>
                    </mxGeometry>
                </mxCell>
                <mxCell id="98" value="192" style="shape=partialRectangle;html=1;whiteSpace=wrap;connectable=0;overflow=hidden;fillColor=none;top=0;left=0;bottom=0;right=0;pointerEvents=1;strokeColor=#82b366;" vertex="1" parent="94">
                    <mxGeometry x="270" width="90" height="43" as="geometry">
                        <mxRectangle width="90" height="43" as="alternateBounds"/>
                    </mxGeometry>
                </mxCell>
                <mxCell id="99" value="0" style="shape=partialRectangle;html=1;whiteSpace=wrap;connectable=0;overflow=hidden;fillColor=none;top=0;left=0;bottom=0;right=0;pointerEvents=1;strokeColor=#82b366;" vertex="1" parent="94">
                    <mxGeometry x="360" width="90" height="43" as="geometry">
                        <mxRectangle width="90" height="43" as="alternateBounds"/>
                    </mxGeometry>
                </mxCell>
                <mxCell id="104" value="" style="edgeStyle=none;html=1;fontColor=#FF1940;entryX=1.009;entryY=0.279;entryDx=0;entryDy=0;entryPerimeter=0;" edge="1" parent="1">
                    <mxGeometry relative="1" as="geometry">
                        <mxPoint x="633.95" y="-210.00252742430888" as="sourcePoint"/>
                        <mxPoint x="570" y="-209.44299999999993" as="targetPoint"/>
                    </mxGeometry>
                </mxCell>
                <mxCell id="105" value="Gen o Sitio" style="html=1;dashed=0;whitespace=wrap;labelBackgroundColor=none;fontColor=#FF1940;fillColor=none;strokeColor=none;" vertex="1" parent="1">
                    <mxGeometry x="650" y="-230" width="100" height="50" as="geometry"/>
                </mxCell>
                <mxCell id="106" value="" style="edgeStyle=none;html=1;fontColor=#FF1940;entryX=1.009;entryY=0.279;entryDx=0;entryDy=0;entryPerimeter=0;" edge="1" parent="1">
                    <mxGeometry relative="1" as="geometry">
                        <mxPoint x="637.95" y="11.497472575691063" as="sourcePoint"/>
                        <mxPoint x="574" y="12.057000000000016" as="targetPoint"/>
                    </mxGeometry>
                </mxCell>
                <mxCell id="107" value="Gen a cambiar" style="html=1;dashed=0;whitespace=wrap;labelBackgroundColor=none;fontColor=#FF1940;fillColor=none;strokeColor=none;" vertex="1" parent="1">
                    <mxGeometry x="673" y="-13" width="100" height="50" as="geometry"/>
                </mxCell>
                <mxCell id="109" style="edgeStyle=none;html=1;fontColor=#000000;" edge="1" parent="1" source="108" target="110">
                    <mxGeometry relative="1" as="geometry">
                        <mxPoint x="340" y="1020" as="targetPoint"/>
                    </mxGeometry>
                </mxCell>
                <mxCell id="108" value="el proceso de reparacion debe hacerce con criterios que permitan el mejoramieonto de las otros genes" style="shape=cloud;whiteSpace=wrap;html=1;fontColor=#000000;strokeColor=#FFCCCC;fillColor=#FFCCCC;" vertex="1" parent="1">
                    <mxGeometry x="620" y="910" width="120" height="120" as="geometry"/>
                </mxCell>
                <mxCell id="112" style="edgeStyle=none;html=1;fontColor=#000000;" edge="1" parent="1" source="110" target="17">
                    <mxGeometry relative="1" as="geometry"/>
                </mxCell>
                <mxCell id="110" value="Se realiza la reparacion&lt;br&gt;&amp;nbsp;de los genes afectados" style="html=1;dashed=0;whitespace=wrap;" vertex="1" parent="1">
                    <mxGeometry x="178.5" y="1140" width="156" height="59" as="geometry"/>
                </mxCell>
            </root>
        </mxGraphModel>
    </diagram>
</mxfile>